# xmcd
#
# Track frame offsets:
#	150
#	9726
#	21950
#	35976
#	50013
#	62123
#	76637
#	97237
#	101814
#	115298
#	141625
#	150075
#	162260
#	178750
#	194698
#	208373
#	223912
#	244422
#	260175
#	273164
#
# Disc length: 3754 seconds
#
# Revision: 1
# Processed by: cddbd v1.4b41PL2 Copyright (c) Steve Scherf et al.
# Submitted via: CDmax 1.7.6
#
DISCID=3e0ea814
DTITLE=Jason and The Scorchers - Rock On Germany
DYEAR=1900
DGENRE=
TTITLE0=Lost Highway
TTITLE1=Last Time Around
TTITLE2=Are You Ready For The Country
TTITLE3=I Can't Help Myself
TTITLE4=If You've Got The Love I've Got The Time
TTITLE5=Shop It Around
TTITLE6=Broken Whiskey Glass
TTITLE7=Help There's A Fire!
TTITLE8=Hot Nights in Georgia
TTITLE9=Pray For Me Momma- I'm a Gypsy Now
TTITLE10=Travelin' Band
TTITLE11=Change the Tune
TTITLE12=You Win Again
TTITLE13=Harvest Moon
TTITLE14=Absolutely Sweet Marie
TTITLE15=If Money Talks
TTITLE16=I Really Don't Want To Know
TTITLE17=White Lies
TTITLE18=Around and Around
TTITLE19=Honky Tonk Blues
EXTD=
EXTT0=
EXTT1=
EXTT2=
EXTT3=
EXTT4=
EXTT5=
EXTT6=
EXTT7=
EXTT8=
EXTT9=
EXTT10=
EXTT11=
EXTT12=
EXTT13=
EXTT14=
EXTT15=
EXTT16=
EXTT17=
EXTT18=
EXTT19=
PLAYORDER=
